<?xml version="1.0" encoding="UTF-8"?>
<svg width="64px" height="64px" viewBox="0 0 64 64" version="1.1" xmlns="http://www.w3.org/2000/svg" xmlns:xlink="http://www.w3.org/1999/xlink">
    <!-- Generator: Sketch 55.1 (78136) - https://sketchapp.com -->
    <title>paperless</title>
    <desc>Created with Sketch.</desc>
    <g id="Page-1" stroke="none" stroke-width="1" fill="none" fill-rule="evenodd">
        <g id="paperless" fill-rule="nonzero">
            <rect id="Rectangle" fill="#EEEEEE" x="0" y="0" width="64" height="64" rx="10"></rect>
            <path d="M22.7930084,47.6430112 C22.1714329,47.8463592 21.526917,47.9796652 20.8845859,48 L20.6213175,48 C20.4509032,47.9785355 20.2815812,47.9762761 20.1067972,47.9762761 C20.087134,47.9525521 20.087134,47.9559413 20.0641936,47.9559413 C6.70523613,47.1979049 15.3843528,30.0545343 5.0065544,26.0022594 C5.0043696,26.0022594 5.0021848,26.0022594 5.0010924,26.0022594 L5,26 C5.0010924,26.0011297 5.0043696,26.0011297 5.0065544,26.0022594 C8.85507899,26.2485365 12.1027837,26.6428058 14.8337833,27.1986238 C17.633604,27.7544418 19.8861325,28.4695491 21.7191794,29.2931088 C21.3728886,30.427339 21.1795339,31.5378453 21.1325607,32.5828284 C21.0692015,33.7215775 21.1325607,34.8591969 21.3073446,35.9256444 C19.9101653,34.3033789 18.3119843,33.0132484 16.6187646,32.0529937 C24.7516813,40.5958714 22.7930084,47.6430112 22.7930084,47.6430112 Z M36.7474119,47.9479608 C36.7242586,47.9546997 36.7242586,47.9524534 36.7033103,47.9546997 C36.4287775,47.9580691 36.1785007,47.9782858 35.9260188,47.9895173 C35.8014316,48.0131034 35.6735368,47.9895173 35.5368217,47.9895173 C34.5886363,47.9670543 33.6393484,47.7794885 32.7099062,47.4717458 C32.7099062,47.4717458 29.8388891,37.2353698 41.841152,24.777406 C38.0869994,26.8518614 34.6437634,30.0730515 32.0263307,34.2500409 C29.9645788,37.5554672 28.6646827,41.0731684 28.0902588,44.5661605 C26.9270779,43.0016145 23.7120679,38.113672 24.0207794,32.7966867 C24.3515417,27.0731217 28.8355766,20.8520018 44.4861483,17.716171 C48.5324743,16.9198587 53.3329385,16.3302057 59,16 C43.6526272,21.8864216 56.4840011,46.8248122 36.7474119,47.9479608 Z" id="Combined-Shape" fill="#160B07"></path>
        </g>
    </g>
</svg>